<?xml version="1.0" encoding="utf-8"?>
<!-- Generator: Adobe Illustrator 16.0.0, SVG Export Plug-In . SVG Version: 6.00 Build 0)  -->
<!DOCTYPE svg PUBLIC "-//W3C//DTD SVG 1.1//EN" "http://www.w3.org/Graphics/SVG/1.1/DTD/svg11.dtd">
<svg version="1.1" id="Layer_1" xmlns="http://www.w3.org/2000/svg" xmlns:xlink="http://www.w3.org/1999/xlink" x="0px" y="0px"
	 width="600px" height="600px" viewBox="0 0 600 600" enable-background="new 0 0 600 600" xml:space="preserve">
<g>
	<path fill="#191E28" d="M300,28.999c-42.862,0-83.391,9.966-119.421,27.683c36.407-14.176,75.158-16.25,111.475-3.231
		c94.967,34.042,137.305,158.292,94.565,277.519c-42.74,119.227-154.373,188.282-249.339,154.239
		c-36.744-13.172-65.6-39.854-84.708-74.518c42.334,94.484,137.19,160.31,247.427,160.31c149.67,0,271.001-121.331,271.001-271.001
		S449.67,28.999,300,28.999z"/>
	<path fill="none" stroke="#3FB0AC" stroke-width="8" stroke-miterlimit="10" d="M300,28.999c-42.862,0-83.391,9.966-119.421,27.683
		c36.407-14.176,75.158-16.25,111.475-3.231c94.967,34.042,137.305,158.292,94.565,277.519
		c-42.74,119.227-154.373,188.282-249.339,154.239c-36.744-13.172-65.6-39.854-84.708-74.518
		c42.334,94.484,137.19,160.31,247.427,160.31c149.67,0,271.001-121.331,271.001-271.001S449.67,28.999,300,28.999z"/>
	<path fill="none" stroke="#3FB0AC" stroke-width="8" stroke-miterlimit="10" d="M300,28.999c-42.862,0-83.391,9.966-119.421,27.683
		c36.407-14.176,75.158-16.25,111.475-3.231c94.967,34.042,137.305,158.292,94.565,277.519
		c-42.74,119.227-154.373,188.282-249.339,154.239c-36.744-13.172-65.6-39.854-84.708-74.518
		c42.334,94.484,137.19,160.31,247.427,160.31c149.67,0,271.001-121.331,271.001-271.001S449.67,28.999,300,28.999z"/>
	<path fill="#3FB0AC" d="M300,28.999c149.67,0,271.001,121.331,271.001,271.001S449.67,571.001,300,571.001
		c-110.237,0-205.093-65.825-247.427-160.31c19.107,34.663,47.964,61.346,84.708,74.518c16.409,5.882,33.307,8.686,50.27,8.686
		c81.208,0,163.713-64.3,199.069-162.925c42.739-119.227,0.401-243.477-94.565-277.519c-16.398-5.878-33.288-8.679-50.239-8.679
		c-20.59,0-41.268,4.135-61.236,11.911C216.609,38.965,257.138,28.999,300,28.999 M300,20.999c-43.121,0-84.488,9.59-122.951,28.504
		c-3.845,1.891-5.518,6.476-3.793,10.398c1.313,2.987,4.241,4.783,7.326,4.783c0.966,0,1.948-0.176,2.9-0.547
		c19.367-7.542,38.993-11.365,58.333-11.365c16.348,0,32.342,2.762,47.539,8.21c43.59,15.625,76.991,51.802,94.049,101.865
		c8.385,24.604,12.363,51.216,11.827,79.096c-0.558,28.958-5.988,58.004-16.142,86.329c-8.408,23.454-19.719,45.379-33.616,65.166
		c-13.404,19.084-28.954,35.823-46.217,49.755c-17.005,13.723-35.234,24.37-54.181,31.647
		c-19.101,7.336-38.455,11.056-57.524,11.056c-16.357,0-32.362-2.765-47.57-8.216c-33.711-12.085-61.513-36.584-80.401-70.85
		c-1.454-2.637-4.186-4.139-7.012-4.14c-1.201,0-2.419,0.271-3.563,0.843c-3.839,1.914-5.485,6.516-3.731,10.431
		c21.722,48.48,56.696,89.627,101.141,118.99c45.598,30.125,98.708,46.048,153.587,46.048c37.661,0,74.2-7.378,108.603-21.929
		c33.224-14.053,63.061-34.168,88.681-59.789c25.621-25.62,45.736-55.457,59.789-88.681C571.623,374.2,579.001,337.661,579.001,300
		c0-37.662-7.378-74.201-21.929-108.602c-14.053-33.225-34.168-63.061-59.789-88.682c-25.62-25.62-55.457-45.736-88.681-59.789
		C374.2,28.377,337.661,20.999,300,20.999L300,20.999z"/>
</g>
</svg>
